<?xml version="1.0" encoding="UTF-8" standalone="no"?>
<!DOCTYPE svg PUBLIC "-//W3C//DTD SVG 1.1//EN" "http://www.w3.org/Graphics/SVG/1.1/DTD/svg11.dtd">
<svg width="100%" height="100%" viewBox="0 0 1000 1000" version="1.1" xmlns="http://www.w3.org/2000/svg" xmlns:xlink="http://www.w3.org/1999/xlink" xml:space="preserve" xmlns:serif="http://www.serif.com/" style="fill-rule:evenodd;clip-rule:evenodd;stroke-linecap:round;stroke-miterlimit:10;">
    <rect id="Artboard1" x="0" y="0" width="1000" height="1000" style="fill:none;"/>
    <clipPath id="_clip1">
        <rect id="Artboard11" serif:id="Artboard1" x="0" y="0" width="1000" height="1000"/>
    </clipPath>
    <g clip-path="url(#_clip1)">
        <rect x="0" y="0" width="1000" height="1000" style="fill:rgb(255,223,97);"/>
        <g id="Wide">
            <path d="M790,612.962c-135.544,129.05 -487.862,146.411 -583.978,39.034" style="fill:none;fill-rule:nonzero;stroke:rgb(1,61,84);stroke-width:49.06px;"/>
        </g>
        <g id="Aquiline">
            <path d="M516.373,397.955c-3.008,89.395 137.846,188.602 84.835,197.75c-53.013,9.158 -71.09,14.517 -71.09,14.517" style="fill:none;fill-rule:nonzero;stroke:rgb(1,61,84);stroke-width:49.06px;stroke-linejoin:round;"/>
        </g>
        <g id="Oval">
            <path d="M461.588,449.691c0,-0 -74.785,94.988 -167.043,94.988c-92.258,0 -167.043,-94.988 -167.043,-94.988c-0,-0 74.785,-94.988 167.043,-94.988c92.258,-0 167.043,94.988 167.043,94.988Z" style="fill:none;fill-rule:nonzero;stroke:rgb(1,61,84);stroke-width:49.06px;stroke-linejoin:round;"/>
            <path d="M292.774,442.257c0,23.26 -18.854,42.114 -42.114,42.114c-23.253,-0 -42.107,-18.854 -42.107,-42.114c0,-23.261 18.854,-42.115 42.107,-42.115c23.26,0 42.114,18.854 42.114,42.115" style="fill:rgb(1,61,84);fill-rule:nonzero;"/>
            <path d="M890.082,395.647c-0,-0 -64.288,81.653 -143.595,81.653c-79.298,0 -143.586,-81.653 -143.586,-81.653c-0,-0 64.288,-81.653 143.586,-81.653c79.307,-0 143.595,81.653 143.595,81.653Z" style="fill:none;fill-rule:nonzero;stroke:rgb(1,61,84);stroke-width:49.06px;stroke-linejoin:round;"/>
            <path d="M738.017,393.665c-0,19.99 -16.205,36.203 -36.203,36.203c-19.991,0 -36.195,-16.213 -36.195,-36.203c-0,-19.99 16.204,-36.203 36.195,-36.203c19.998,-0 36.203,16.213 36.203,36.203" style="fill:rgb(1,61,84);fill-rule:nonzero;"/>
        </g>
        <g id="Prominent">
            <path d="M139.619,300.89c15.812,-126.817 101.668,-186.379 194.171,-134.715" style="fill:none;fill-rule:nonzero;stroke:rgb(1,61,84);stroke-width:49.06px;stroke-linejoin:round;"/>
            <path d="M846.767,229.343c-62.383,-42.327 -178.907,-159.938 -247.053,-39.62" style="fill:none;fill-rule:nonzero;stroke:rgb(1,61,84);stroke-width:49.06px;stroke-linejoin:round;"/>
        </g>
    </g>
</svg>
