<?xml version="1.0" encoding="UTF-8" standalone="no"?>
<!DOCTYPE svg PUBLIC "-//W3C//DTD SVG 1.1//EN" "http://www.w3.org/Graphics/SVG/1.1/DTD/svg11.dtd">
<svg width="100%" height="100%" viewBox="0 0 32 32" version="1.1" xmlns="http://www.w3.org/2000/svg" xmlns:xlink="http://www.w3.org/1999/xlink" xml:space="preserve" xmlns:serif="http://www.serif.com/" style="fill-rule:evenodd;clip-rule:evenodd;stroke-linecap:round;stroke-linejoin:round;stroke-miterlimit:10;">
    <path d="M-37.155,79.563L95.201,56.925L66.257,-58.277L-55.875,-36.913L-37.155,79.563Z" style="fill:#f57f7f;fill-rule:nonzero;"/>
    <path d="M16.778,14.426C16.39,17.624 13.86,22.343 13.774,23.148C13.612,24.66 16.202,23.615 16.202,23.615" style="fill:none;fill-rule:nonzero;stroke:#013d54;stroke-width:1.9px;"/>
    <path d="M8.963,12.708C9.022,13.348 9.588,13.821 10.229,13.763C10.87,13.705 11.342,13.138 11.284,12.497C11.226,11.856 10.66,11.384 10.019,11.442C9.378,11.5 8.905,12.067 8.963,12.708" style="fill:#013d54;fill-rule:nonzero;"/>
    <path d="M9.713,5.765C6.333,5.474 4.333,7.91 3.827,10.321" style="fill:none;fill-rule:nonzero;stroke:#013d54;stroke-width:1.9px;"/>
    <path d="M24.013,10.163C24.071,10.804 24.638,11.276 25.279,11.218C25.92,11.16 26.392,10.593 26.334,9.953C26.276,9.312 25.709,8.839 25.068,8.897C24.427,8.956 23.955,9.522 24.013,10.163" style="fill:#013d54;fill-rule:nonzero;"/>
    <path d="M13.639,29.067C17.347,29.43 26.617,27.722 26.181,21.978" style="fill:none;fill-rule:nonzero;stroke:#013d54;stroke-width:1.9px;"/>
    <path d="M20.808,3.629C23.764,1.963 26.593,3.351 28.053,5.336" style="fill:none;fill-rule:nonzero;stroke:#013d54;stroke-width:1.9px;"/>
</svg>
